<svg height="511pt" viewBox="0 1 511 511.99975" width="511pt" xmlns="http://www.w3.org/2000/svg"><path d="m174.597656 309.617188c-5.855468-5.859376-15.355468-5.859376-21.210937 0-5.859375 5.855468-5.859375 15.355468 0 21.210937l28.28125 28.285156c2.929687 2.929688 6.769531 4.394531 10.605469 4.394531 3.839843 0 7.679687-1.464843 10.609374-4.394531 5.855469-5.855469 5.855469-15.355469 0-21.210937zm0 0"/><path d="m224.097656 274.261719c-5.859375-5.855469-15.355468-5.855469-21.214844 0-5.859374 5.855469-5.859374 15.355469 0 21.214843l14.140626 14.140626c2.929687 2.929687 6.769531 4.394531 10.609374 4.394531 3.835938 0 7.675782-1.464844 10.605469-4.394531 5.855469-5.859376 5.855469-15.355469 0-21.214844zm0 0"/><path d="m382.011719 194.128906 34.785156-34.789062c2.039063.972656 4.246094 1.472656 6.457031 1.472656 3.835938 0 7.675782-1.464844 10.605469-4.394531l7.070313-7.070313 10.609374 10.609375c2.925782 2.929688 6.765626 4.394531 10.605469 4.394531 3.835938 0 7.675781-1.46875 10.605469-4.394531 5.855469-5.859375 5.855469-15.355469 0-21.214843l-10.609375-10.609376 14.144531-14.140624 10.605469 10.609374c2.929687 2.929688 6.769531 4.390626 10.609375 4.390626 3.835938 0 7.675781-1.464844 10.605469-4.390626 5.855469-5.859374 5.855469-15.355468 0-21.214843l-10.605469-10.605469 7.070312-7.070312c5.859376-5.859376 5.859376-15.355469 0-21.214844l-56.570312-56.566406c-5.855469-5.859376-15.355469-5.859376-21.210938 0l-7.070312 7.070312-10.609375-10.605469c-5.855469-5.859375-15.351563-5.859375-21.210937 0-5.859376 5.855469-5.859376 15.351563 0 21.210938l10.605468 10.605469-14.140625 14.144531-10.609375-10.609375c-5.855468-5.855469-15.355468-5.855469-21.210937 0-5.859375 5.859375-5.859375 15.355468 0 21.214844l10.605469 10.605468-7.070313 7.074219c-4.617187 4.613281-5.578125 11.484375-2.921875 17.058594l-34.777344 34.78125s-.003906.003906-.007812.007812l-77.109375 77.109375c-18.875-13.632812-44.554688-14.027344-64.066407-.09375l-170.414062 121.726563c-4.667969 3.335937-7.027344 9.042969-6.070312 14.699219.953124 5.660156 5.050781 10.277343 10.558593 11.898437l112.355469 33.046875 33.046875 112.355469c1.621094 5.507812 6.238281 9.605469 11.898437 10.558593.832032.144532 1.667969.210938 2.496094.210938 4.792969 0 9.359375-2.300781 12.203125-6.28125l121.726563-170.414062c13.9375-19.511719 13.539062-45.191407-.09375-64.066407zm-53.035157 10.605469-21.210937-21.214844 21.210937-21.210937 21.214844 21.210937zm65.992188-65.992187-23.566406 23.566406-21.210938-21.210938 23.566406-23.566406zm77.78125-63.640626-49.496094 49.5-35.359375-35.355468 7.0625-7.0625c.003907-.003906.007813-.003906.011719-.007813.003906-.003906.003906-.007812.007812-.011719l42.417969-42.417968zm-186.199219 129.632813 21.214844 21.210937-23.566406 23.566407-21.214844-21.214844zm-5.96875 113.128906-103.820312 145.351563-26.664063-90.65625c-1.4375-4.890625-5.265625-8.71875-10.15625-10.15625l-90.65625-26.664063 145.351563-103.820312c9.980469-7.132813 23.53125-6.011719 32.207031 2.664062l51.074219 51.074219c8.675781 8.675781 9.796875 22.222656 2.664062 32.207031zm0 0"/><path d="m499.765625 271.007812-33.546875-5.125-15.140625-32.257812c-2.472656-5.261719-7.761719-8.625-13.578125-8.625s-11.109375 3.363281-13.578125 8.625l-15.140625 32.257812-33.546875 5.125c-5.558594.851563-10.175781 4.734376-11.960937 10.066407-1.785157 5.332031-.4375 11.210937 3.488281 15.238281l24.714843 25.328125-5.863281 35.941406c-.925781 5.671875 1.46875 11.371094 6.164063 14.679688 4.695312 3.308593 10.871094 3.644531 15.894531.863281l29.828125-16.484375 29.824219 16.488281c2.265625 1.25 4.765625 1.871094 7.257812 1.871094 3.03125 0 6.058594-.921875 8.640625-2.738281 4.695313-3.308594 7.089844-9.007813 6.164063-14.675781l-5.863281-35.945313 24.710937-25.328125c3.929687-4.023438 5.273437-9.90625 3.488281-15.238281s-6.398437-9.21875-11.957031-10.066407zm-43.003906 35.101563c-3.324219 3.40625-4.832031 8.1875-4.066407 12.890625l2.109376 12.929688-10.046876-5.554688c-2.257812-1.25-4.757812-1.875-7.257812-1.875s-5 .625-7.257812 1.875l-10.046876 5.554688 2.109376-12.929688c.765624-4.699219-.746094-9.484375-4.070313-12.890625l-9.613281-9.855469 12.601562-1.925781c4.945313-.753906 9.191406-3.925781 11.316406-8.453125l4.960938-10.570312 4.960938 10.570312c2.125 4.527344 6.371093 7.699219 11.3125 8.453125l12.605468 1.925781zm0 0"/><path d="m118.894531 190.605469c2.925781 2.929687 6.765625 4.394531 10.605469 4.394531s7.675781-1.464844 10.605469-4.394531c5.859375-5.855469 5.859375-15.355469 0-21.210938l-19.394531-19.394531h23.789062c6.066406 0 11.535156-3.652344 13.855469-9.261719 2.324219-5.605469 1.039062-12.054687-3.25-16.34375l-45-45c-5.855469-5.859375-15.355469-5.859375-21.214844 0-5.855469 5.855469-5.855469 15.351563 0 21.210938l19.394531 19.394531h-23.785156c-6.066406 0-11.535156 3.652344-13.859375 9.257812-2.320313 5.605469-1.039063 12.058594 3.253906 16.347657zm0 0"/></svg>