<?xml version="1.0" encoding="iso-8859-1"?>
<!-- Generator: Adobe Illustrator 19.0.0, SVG Export Plug-In . SVG Version: 6.00 Build 0)  -->
<svg version="1.1" id="Capa_1" xmlns="http://www.w3.org/2000/svg" xmlns:xlink="http://www.w3.org/1999/xlink" x="0px" y="0px"
	 viewBox="0 0 512.001 512.001" style="enable-background:new 0 0 512.001 512.001;" xml:space="preserve">
<g>
	<g>
		<path d="M116.835,395.166c-5.868-5.87-15.385-5.87-21.254,0L4.402,486.344c-5.869,5.87-5.869,15.385,0,21.255
			C7.337,510.533,11.183,512,15.03,512s7.693-1.467,10.627-4.403l91.178-91.178C122.704,410.551,122.704,401.035,116.835,395.166z"
			/>
	</g>
</g>
<g>
	<g>
		<path d="M176.952,455.283c-5.868-5.869-15.385-5.869-21.255,0.001l-31.061,31.061c-5.869,5.87-5.869,15.385,0,21.255
			c2.935,2.935,6.781,4.402,10.628,4.402c3.847,0,7.693-1.467,10.627-4.403l31.061-31.061
			C182.822,470.668,182.822,461.152,176.952,455.283z"/>
	</g>
</g>
<g>
	<g>
		<path d="M56.717,335.048c-5.868-5.869-15.385-5.869-21.255,0L4.402,366.108c-5.87,5.869-5.87,15.385,0,21.255
			c2.935,2.936,6.781,4.403,10.628,4.403s7.693-1.467,10.627-4.403l31.061-31.061C62.587,350.433,62.587,340.917,56.717,335.048z"/>
	</g>
</g>
<g>
	<g>
		<path d="M445.971,66.03C403.39,23.45,346.778,0,286.56,0c-60.218,0-116.83,23.45-159.41,66.03
			c-88.143,88.144-87.937,230.883,0,318.821c42.58,42.58,99.193,66.03,159.41,66.03c60.218,0,116.83-23.45,159.41-66.03
			C533.761,297.06,534.26,154.321,445.971,66.03z M459.943,135.449c9.864,18.929,16.718,39.662,19.925,61.567l-32.304-23.47
			L459.943,135.449z M438.828,103.164l-20.859,64.195l-57.7,18.748l-58.68-42.633V82.805l54.819-39.828
			C388.951,55.477,417.325,76.441,438.828,103.164z M339.565,208.219l-20.247,62.31h-65.516l-20.247-62.31l53.005-38.51
			L339.565,208.219z M286.56,30.059c11.142,0,22.064,0.952,32.702,2.751L286.56,56.57L253.858,32.81
			C264.496,31.011,275.418,30.059,286.56,30.059z M216.712,42.977l54.819,39.828v60.668l-58.68,42.633l-57.7-18.748l-20.859-64.195
			C155.795,76.441,184.169,55.477,216.712,42.977z M113.178,135.448l12.379,38.097l-32.304,23.47
			C96.46,175.11,103.312,154.377,113.178,135.448z M123.375,332.759c-18.607-28.199-30.12-61.473-31.942-97.267l54.429-39.545
			l58.249,18.927l22.203,68.336l-35.999,49.55H123.375z M147.772,362.818h39.282l12.134,37.344
			C180.048,390.552,162.695,377.892,147.772,362.818z M337.836,413.981c-16.348,4.451-33.538,6.841-51.276,6.841
			s-34.928-2.391-51.276-6.841l-20.65-63.553l36.211-49.84h71.432l36.211,49.84L337.836,413.981z M373.932,400.162l12.134-37.344
			h39.282C410.425,377.892,393.072,390.552,373.932,400.162z M382.804,332.759l-36-49.551l22.203-68.335l58.249-18.927
			l54.429,39.545c-1.822,35.795-13.334,69.069-31.941,97.268H382.804z"/>
	</g>
</g>
<g>
</g>
<g>
</g>
<g>
</g>
<g>
</g>
<g>
</g>
<g>
</g>
<g>
</g>
<g>
</g>
<g>
</g>
<g>
</g>
<g>
</g>
<g>
</g>
<g>
</g>
<g>
</g>
<g>
</g>
</svg>
