<svg id="Capa_1" enable-background="new 0 0 511.973 511.973" height="512" viewBox="0 0 511.973 511.973" width="512" xmlns="http://www.w3.org/2000/svg"><path d="m495.209 46.498c-11.04-9.033-25.633-11.545-39.037-6.72-73.071 26.302-153.95 14.401-216.348-31.838-11.445-8.481-26.143-10.279-39.317-4.81-14.954 6.208-25.819 20.772-28.356 38.009l-16.258 110.478c-.422 2.869-.777 5.745-1.101 8.623-33.075 3.282-66.96-.556-99.387-11.897-13.447-4.702-28.016-2.059-38.974 7.074-12.439 10.366-18.493 27.499-15.8 44.712l17.26 110.325c5.806 37.111 19.823 72.624 40.536 102.698 20.861 30.289 48.157 54.553 78.938 70.169l40.683 20.639c10.612 5.383 22.042 8.003 33.385 8.002 18.977-.001 37.697-7.338 51.853-21.338l32.435-32.078c17.907-17.71 32.622-39.251 43.403-63.276l38.136-19.784c30.638-15.895 57.712-40.405 78.297-70.883 20.439-30.261 34.133-65.899 39.602-103.062l16.257-110.477c2.535-17.236-3.675-34.314-16.207-44.566zm-64.515 241.314c-17.79 26.34-41.045 47.449-67.252 61.044l-10.385 5.388c7.432-31.185 8.703-64.365 3.63-96.793l-17.26-110.325c-2.693-17.213-13.69-31.679-28.701-37.75-13.223-5.349-27.904-3.417-39.271 5.167-25.929 19.581-55.154 33.157-85.74 40.476l16.116-109.512c1.207-8.201 6.049-12.955 10.178-14.669 1.389-.577 2.749-.865 4.073-.865 2.052 0 4.019.691 5.881 2.071 70.48 52.228 161.834 65.668 244.37 35.961 3.587-1.293 6.912-.715 9.88 1.712 3.46 2.831 6.728 8.778 5.521 16.98l-16.257 110.478c-4.818 32.739-16.846 64.08-34.783 90.637zm-239.074 189.394-40.682-20.639c-26.329-13.357-49.775-34.254-67.804-60.432-18.177-26.392-30.488-57.624-35.603-90.318l-17.261-110.325c-1.281-8.19 1.932-14.167 5.367-17.03 1.95-1.625 4.063-2.439 6.313-2.439 1.149 0 2.334.212 3.551.638 82.804 28.958 174.031 14.685 244.033-38.178 3.044-2.298 6.388-2.734 9.943-1.297 4.145 1.677 9.03 6.386 10.311 14.577l17.26 110.325c5.115 32.694 2.931 66.194-6.317 96.876-9.172 30.433-25.116 57.492-46.107 78.252l-32.435 32.078c-13.418 13.271-33.74 16.451-50.569 7.912z"/><path d="m133.376 289.58c6.219 5.473 15.697 4.869 21.17-1.35s4.869-15.697-1.35-21.17c-12.862-11.32-28.472-16.219-43.952-13.799-15.48 2.422-28.847 11.855-37.638 26.563-4.25 7.111-1.931 16.321 5.18 20.571 2.411 1.441 5.063 2.127 7.682 2.127 5.104 0 10.081-2.607 12.89-7.307 4.137-6.922 10.005-11.295 16.523-12.315s13.443 1.352 19.495 6.68z"/><path d="m220.336 277.937c2.411 1.441 5.062 2.126 7.681 2.126 5.104 0 10.081-2.607 12.89-7.308 4.136-6.921 10.004-11.294 16.523-12.314 6.513-1.021 13.441 1.352 19.495 6.68 6.219 5.473 15.697 4.869 21.17-1.35s4.869-15.697-1.35-21.17c-12.863-11.321-28.477-16.224-43.952-13.799-15.481 2.422-28.848 11.855-37.638 26.564-4.25 7.112-1.931 16.321 5.181 20.571z"/><path d="m258.347 402.278c11.474-15.73 16.135-34.987 13.126-54.224-.6-3.835-1.525-7.68-2.749-11.429-1.591-4.871-5.558-8.593-10.521-9.871-4.961-1.275-10.234.067-13.979 3.566-12.711 11.876-28.555 19.581-45.818 22.282-17.264 2.702-34.703.203-50.435-7.223-4.634-2.188-10.063-1.858-14.4.874-4.335 2.732-6.977 7.488-7.003 12.612-.021 3.945.273 7.889.873 11.723 3.009 19.236 13.33 36.149 29.06 47.623 12.611 9.199 27.485 14.019 42.801 14.019 3.789 0 7.607-.295 11.421-.892 19.237-3.009 36.15-13.33 47.624-29.06zm-84.166-8.304c-4.67-3.407-8.53-7.628-11.436-12.429 13.184 2.555 26.785 2.811 40.298.697 13.504-2.113 26.367-6.506 38.133-12.958-3.939 16.401-17.418 29.648-35.089 32.413-11.322 1.774-22.65-.971-31.906-7.723z"/></svg>