<svg id="Capa_1" enable-background="new 0 0 512 512" height="512" viewBox="0 0 512 512" width="512" xmlns="http://www.w3.org/2000/svg"><g><path d="m319.095 211h47.937c57.897 0 105-47.103 105-105 0-58.449-47.103-106-105-106-52.854 0-96.704 39.63-103.944 91h-223.12l162.063 259.302v131.698h-60v30h150v-30h-60v-131.698zm-102.063 106.698-66.686-106.698h133.373zm150-287.698c41.355 0 75 34.094 75 76 0 41.355-33.645 75-75 75h-29.187l56.25-90h-100.59c6.893-34.746 37.238-61 73.527-61zm-27.064 91-37.5 60h-170.872l-37.5-60z"/></g></svg>