<svg id="Capa_1" enable-background="new 0 0 512 512" height="512" viewBox="0 0 512 512" width="512" xmlns="http://www.w3.org/2000/svg"><g><path d="m396 0h-120c-42.873 0-81.695 23.642-101.542 61h-18.458c-63.411 0-115 51.589-115 115v10c0 12.033 2.305 23.87 6.724 34.959-27.752 14.592-46.724 43.71-46.724 77.182 0 21.729 8.052 42.551 22.672 58.628l77.328 85.031v55.2c0 8.284 6.716 15 15 15h200c8.284 0 15-6.716 15-15v-46h105c8.284 0 15-6.716 15-15v-55.548c38.731-47.188 60-106.496 60-167.652v-97.8c0-63.411-51.589-115-115-115zm-120 30h120c46.869 0 85 38.131 85 85v30c0 24.813-20.187 45-45 45h-45v-14c0-63.411-51.589-115-115-115h-65.673c15.882-19.331 39.778-31 65.673-31zm-205 156v-10c0-46.869 38.131-85 85-85h120c46.869 0 85 38.131 85 85v30c0 24.813-20.187 45-45 45h-87.096c-6.547-23.057-27.777-40-52.904-40h-87.859c-3.981 0-7.899.274-11.74.794-3.547-8.127-5.401-16.885-5.401-25.794zm-40 112.141c0-31.508 25.633-57.141 57.141-57.141h87.859c13.785 0 25 11.215 25 25s-11.215 25-25 25h-80c-8.284 0-15 6.716-15 15s6.716 15 15 15h80c25.127 0 46.356-16.943 52.904-40h87.096c16.871 0 32.456-5.603 45-15.041v7.841c0 53.605-18.441 105.602-52.046 147.2h-32.954v-20c0-33.084-26.916-60-60-60s-60 26.916-60 60v20h-33.366l-76.767-84.415c-9.587-10.542-14.867-24.195-14.867-38.444zm215 122.859h-60v-20c0-16.542 13.458-30 30-30s30 13.458 30 30zm55 61h-170v-31h170zm120-61h-74.798c-.004-.004-.007-.009-.011-.013 6.662-9.936 12.622-20.288 17.855-30.977.009-.003.018-.007.027-.01h56.927zm7.954-61h-52.421c9.501-27.529 14.467-56.649 14.467-86.2v-53.8h45c16.871 0 32.456-5.603 45-15.041v7.841c0 53.604-18.441 105.601-52.046 147.2z"/></g></svg>