<svg id="Capa_1" enable-background="new 0 0 512 512" height="512" viewBox="0 0 512 512" width="512" xmlns="http://www.w3.org/2000/svg"><g><path d="m21.729 331h129.271c21.532 0 42.015-4.569 60.542-12.775-.357 4.235-.542 8.496-.542 12.775 0 82.71 67.29 150 150 150h130.271l-22.382-44.764c27.529-27.967 43.111-65.701 43.111-105.236 0-82.71-67.738-150-151-150-21.185 0-41.658 4.334-60.542 12.689.352-4.184.542-8.415.542-12.689 0-82.71-67.29-150-150-150-83.262 0-151 67.29-151 150 0 39.104 15.943 76.861 44.102 105.257zm339.271-120c66.72 0 121 53.832 121 120 0 63.841-47.578 95.026-50.138 98.267l10.867 21.733h-81.729c-66.168 0-120-53.832-120-120 0-11.556 1.64-22.935 4.86-33.894 20.477-16.761 36.456-38.819 45.825-64.064 20.321-14.428 44.189-22.042 69.315-22.042zm-331-30c0-66.168 54.28-120 121-120 66.168 0 120 53.832 120 120s-53.832 120-120 120h-80.729l10.867-21.733c-2.773-3.473-51.138-35.245-51.138-98.267z"/><path d="m151 121c16.542 0 30 13.458 30 30 0 11.214-6.182 21.411-16.132 26.613-17.537 9.167-28.868 28.16-28.868 48.387h30c0-9.048 5.131-17.809 12.767-21.801 19.881-10.393 32.233-30.778 32.233-53.199 0-33.084-26.916-60-60-60s-60 26.916-60 60h30c0-16.542 13.458-30 30-30z"/><path d="m136 241h30v30h-30z"/><path d="m301 286h121v30h-121z"/><path d="m301 346h121v30h-121z"/></g></svg>