<?xml version="1.0" encoding="iso-8859-1"?>
<!-- Generator: Adobe Illustrator 19.0.0, SVG Export Plug-In . SVG Version: 6.00 Build 0)  -->
<svg version="1.1" id="Capa_1" xmlns="http://www.w3.org/2000/svg" xmlns:xlink="http://www.w3.org/1999/xlink" x="0px" y="0px"
	 viewBox="0 0 288 288" style="enable-background:new 0 0 288 288;" xml:space="preserve">
<g>
	<g>
		<g>
			<path d="M80,0H48C30.305,0,16,14.305,16,32v224c0,17.695,14.305,32,32,32h32c17.695,0,32-14.305,32-32V32
				C112,14.305,97.695,0,80,0z"/>
			<path d="M240,0h-32c-17.695,0-32,14.305-32,32v224c0,17.695,14.305,32,32,32h32c17.695,0,32-14.305,32-32V32
				C272,14.305,257.695,0,240,0z"/>
		</g>
	</g>
</g>
<g>
</g>
<g>
</g>
<g>
</g>
<g>
</g>
<g>
</g>
<g>
</g>
<g>
</g>
<g>
</g>
<g>
</g>
<g>
</g>
<g>
</g>
<g>
</g>
<g>
</g>
<g>
</g>
<g>
</g>
</svg>
