<?xml version="1.0" encoding="iso-8859-1"?>
<!-- Generator: Adobe Illustrator 19.0.0, SVG Export Plug-In . SVG Version: 6.00 Build 0)  -->
<svg version="1.1" id="Capa_1" xmlns="http://www.w3.org/2000/svg" xmlns:xlink="http://www.w3.org/1999/xlink" x="0px" y="0px"
	 viewBox="0 0 512 512" style="enable-background:new 0 0 512 512;" xml:space="preserve">
<g>
	<g>
		<path d="M501.428,181.107C468.324,72.779,369.912,0,256.548,0C115.383,0,0.53,114.844,0.53,256.009
			C0.53,397.165,115.383,512,256.548,512c62.247,0,122.242-22.599,168.939-63.644c7.04-6.176,7.72-16.901,1.544-23.941
			c-6.176-7.04-16.901-7.711-23.941-1.544c-40.502,35.595-92.548,55.198-146.542,55.198c-122.463,0-222.087-99.615-222.087-222.06
			c0-122.454,99.634-222.087,222.087-222.087c98.356,0,183.726,63.138,212.428,157.102c16.341,53.516,8.703,99.386-21.515,129.126
			c-23.528,23.16-59.141,33.177-86.565,24.3c-13.087-4.218-29.566-14.493-33.839-39.519c-6.516-38.094,6.424-103.751,29.465-149.492
			c4.209-8.372,0.855-18.574-7.518-22.783c-8.382-4.237-18.565-0.855-22.783,7.518c-0.561,1.114-1.109,2.25-1.659,3.383
			c-20.685-19.627-49.967-29.428-81.019-25.808c-41.605,4.816-92.208,35.696-109.458,107.878
			c-17.159,71.768,18.528,123.253,58.948,140.715c12.361,5.34,25.053,7.931,37.644,7.931c26.509,0,52.561-11.495,74.179-32.953
			c10.084,16.643,25.767,29.008,45.618,35.407c39.583,12.802,88.127-0.239,120.799-32.406
			C494.241,321.712,528.705,270.429,501.428,181.107z M206.497,335.203c-28.748-12.425-52.073-48.673-39.409-101.674
			c13.188-55.17,50.152-78.56,80.361-82.071c26.329-3.022,49.751,7.385,62.708,27.471c-14.494,42.651-21.507,90.32-17.537,124.661
			C264.722,342.127,230.174,345.42,206.497,335.203z"/>
	</g>
</g>
<g>
</g>
<g>
</g>
<g>
</g>
<g>
</g>
<g>
</g>
<g>
</g>
<g>
</g>
<g>
</g>
<g>
</g>
<g>
</g>
<g>
</g>
<g>
</g>
<g>
</g>
<g>
</g>
<g>
</g>
</svg>
