<svg id="Layer_1" enable-background="new 0 0 512 512" height="512" viewBox="0 0 512 512" width="512" xmlns="http://www.w3.org/2000/svg"><g><path d="m476.833 220.833c0-58.987-22.971-114.443-64.681-156.153-41.709-41.709-97.165-64.68-156.152-64.68s-114.443 22.971-156.153 64.68c-41.71 41.71-64.681 97.166-64.681 156.153s22.971 114.443 64.681 156.153c27.746 27.747 61.58 47.188 98.486 57.103v77.911h115.334v-77.911c36.905-9.916 70.739-29.357 98.486-57.104 41.71-41.709 64.68-97.165 64.68-156.152zm-248.5 261.167v-42.042c9.108 1.131 18.343 1.709 27.667 1.709s18.559-.578 27.667-1.709v42.042zm27.667-70.333c-105.226 0-190.833-85.607-190.833-190.834 0-105.226 85.607-190.833 190.833-190.833s190.833 85.607 190.833 190.833-85.607 190.834-190.833 190.834z"/><path d="m227.594 341.333h.204v-6.033c3.117-47.743 42.945-85.634 91.463-85.634h16.584l-26.655 26.655 21.213 21.213 63.404-63.404-63.404-63.404-21.213 21.213 27.727 27.727h-17.656c-36.419 0-69.147 16.089-91.463 41.527v-118.313l27.19 27.19 21.213-21.213-63.404-63.404-63.403 63.404 21.213 21.213 27.191-27.191v191.495c-.131 2.304-.204 4.623-.204 6.959h.204z"/></g></svg>