<?xml version="1.0"?>
<svg xmlns="http://www.w3.org/2000/svg" id="Object" viewBox="0 0 32 32" width="512" height="512"><path d="M27.8,1H10.2A3.21,3.21,0,0,0,7,4.2V7H4.2A3.21,3.21,0,0,0,1,10.2V27.8A3.21,3.21,0,0,0,4.2,31H21.8A3.21,3.21,0,0,0,25,27.8V25h2.8A3.21,3.21,0,0,0,31,21.8V4.2A3.21,3.21,0,0,0,27.8,1ZM23,27.8A1.2,1.2,0,0,1,21.8,29H4.2A1.2,1.2,0,0,1,3,27.8V10.2A1.2,1.2,0,0,1,4.2,9H21.8A1.2,1.2,0,0,1,23,10.2V27.8Zm6-6A1.2,1.2,0,0,1,27.8,23H25V10.2A3.21,3.21,0,0,0,21.8,7H9V4.2A1.2,1.2,0,0,1,10.2,3H27.8A1.2,1.2,0,0,1,29,4.2Z"/></svg>
