<svg height="511pt" viewBox="-14 0 511 511.99692" width="511pt" xmlns="http://www.w3.org/2000/svg"><path d="m463.402344 167.855469c13.5625-18.058594 20.902344-39.914063 20.902344-62.898438 0-28.050781-10.925782-54.417969-30.757813-74.253906-37.34375-37.34375-96.039063-40.621094-137.140625-9.847656l-.761719-.757813c-5.855469-5.859375-15.355469-5.859375-21.214843 0-5.859376 5.855469-5.859376 15.355469 0 21.214844l.753906.75c-12.09375 16.125-19.246094 35.316406-20.632813 55.613281l-35.644531 39.800781c-5.320312 1.148438-10.410156 3.074219-15.140625 5.722657l-33.289063-33.292969c-17.546874-17.546875-46.101562-17.546875-63.648437 0-5.046875 5.046875-8.632813 11.007812-10.777344 17.351562-15.59375-5.070312-33.425781-1.429687-45.796875 10.9375-12.367187 12.367188-16.003906 30.199219-10.9375 45.796876-6.34375 2.144531-12.300781 5.730468-17.347656 10.777343-12.371094 12.367188-16.007812 30.199219-10.9375 45.796875-6.34375 2.144532-12.304688 5.730469-17.351562 10.777344-8.5 8.5-13.179688 19.800781-13.179688 31.820312 0 12.023438 4.679688 23.324219 13.179688 31.824219l28.289062 28.289063c4.386719 4.386718 9.46875 7.679687 14.886719 9.871094-3.359375 15.710937-.539063 31.949218 7.648437 45.464843-18.113281 19.582031-23.007812 46.773438-12.703125 71.644531 10.664063 25.746094 34.597657 41.738282 62.464844 41.738282 8.285156 0 15-6.714844 15-15s-6.714844-15.003906-15-15.003906c-18.527344 0-30.097656-11.992188-34.746094-23.214844-4.414062-10.652344-4.898437-26.195313 6.257813-38.949219 9.742187 5.863281 20.886718 8.957031 32.226562 8.957031 2.941406 0 5.894532-.210937 8.84375-.632812l16.914063 16.914062c17.546875 17.546875 41.796875 26.128906 66.179687 23.753906l38.785156 38.78125c2.929688 2.929688 6.769532 4.394532 10.605469 4.394532 3.839844 0 7.679688-1.464844 10.609375-4.394532l134.363282-134.363281c5.859374-5.859375 5.859374-15.359375 0-21.214843l-36.898438-36.898438c10.308594-27.617188 8.128906-57.984375-5.277344-83.539062l24.445313-21.890626c20.296875-1.386718 39.488281-8.539062 55.609375-20.632812l.753906.753906c2.929688 2.929688 6.769531 4.394532 10.609375 4.394532 3.835937 0 7.675781-1.464844 10.605469-4.394532 5.859375-5.859375 5.859375-15.355468 0-21.214844zm-31.070313-115.933594c14.167969 14.167969 21.96875 33.003906 21.96875 53.039063 0 14.9375-4.339843 29.203124-12.417969 41.371093l-103.953124-103.953125c29.105468-19.25 68.789062-16.070312 94.402343 9.542969zm-284.285156 79.203125c2.832031-2.835938 6.597656-4.394531 10.605469-4.394531 4.007812 0 7.773437 1.558593 10.609375 4.394531l31.820312 31.820312-21.214843 21.21875-31.820313-31.824218c-5.851563-5.847656-5.851563-15.367188 0-21.214844zm84.1875 127.964844c2.183594 13.078125 6.386719 25.726562 12.378906 37.46875l-104.875 93.917968c-3.582031 3.210938-7.722656 5.535157-12.300781 6.914063-.023438.007813-.046875.015625-.070312.023437-11.492188 3.429688-23.886719.304688-32.359376-8.164062v-.003906c-.003906 0-.003906 0-.003906-.003906-8.472656-8.472657-11.597656-20.878907-8.160156-32.371094.269531-.902344.59375-1.785156.941406-2.660156 6.523438-2.121094 12.65625-5.757813 17.828125-10.929688 4.140625-4.140625 7.292969-8.902344 9.480469-13.980469 6.898438 3.941407 14.617188 5.925781 22.34375 5.925781 11.523438 0 23.050781-4.386718 31.820312-13.160156 8.144532-8.144531 12.503907-18.660156 13.085938-29.347656 10.6875-.582031 21.203125-4.941406 29.347656-13.085938zm-140.765625-99.679688c5.851562-5.847656 15.367188-5.847656 21.214844 0l45.96875 45.96875-10.609375 10.609375c-3.71875 3.71875-6.640625 7.933594-8.78125 12.429688l-33.648438-33.648438-14.144531-14.140625c-5.847656-5.851562-5.847656-15.367187 0-21.21875zm-28.285156 56.574219c2.921875-2.921875 6.765625-4.386719 10.609375-4.386719 3.839843 0 7.679687 1.464844 10.605469 4.386719l63.636718 63.636719c.003906.003906.007813.007812.007813.011718.003906 0 .003906 0 .003906.003907 5.847656 5.847656 5.84375 15.363281-.003906 21.210937-5.847657 5.847656-15.367188 5.847656-21.214844 0l-21.214844-21.214844-28.285156-28.289062-14.144531-14.140625c-5.851563-5.851563-5.851563-15.367187 0-21.21875zm-28.289063 77.792969c-2.832031-2.835938-4.394531-6.601563-4.394531-10.609375 0-4.007813 1.5625-7.773438 4.394531-10.605469 2.925781-2.925781 6.765625-4.386719 10.609375-4.386719 3.839844 0 7.683594 1.460938 10.605469 4.386719l28.289063 28.285156c5.847656 5.851563 5.847656 15.367188 0 21.214844-5.851563 5.851562-15.367188 5.851562-21.214844 0zm337.589844 68.859375-113.148437 113.148437-33.5-33.5c-3.546876-3.546875-8.628907-5.085937-13.550782-4.101562-17.210937 3.441406-34.894531-1.914063-47.308594-14.324219l-8.386718-8.390625c1.074218-.847656 2.136718-1.71875 3.167968-2.640625l101.695313-91.074219c2.171875 2.542969 4.441406 5.007813 6.8125 7.378906 2.929687 2.929688 6.769531 4.394532 10.605469 4.394532 3.839844 0 7.679687-1.464844 10.609375-4.390625 5.859375-5.859375 5.859375-15.359375 0-21.214844-15.84375-15.84375-25.929688-36.832031-28.402344-59.097656l-2.65625-23.886719c-.914063-8.234375-8.324219-14.167969-16.566406-13.253906-3.523438.394531-6.617188 1.980468-8.945313 4.308594l-.003906-.003907-42.429688 42.429688c-2.832031 2.835937-6.601562 4.394531-10.605468 4.394531-4.007813 0-7.777344-1.5625-10.609375-4.394531s-4.394531-6.601563-4.394531-10.605469c0-4.007812 1.5625-7.773438 4.394531-10.609375l63.644531-63.644531c4.722656-4.722656 11.003906-7.324219 17.679688-7.324219 6.679687 0 12.960937 2.601563 17.683593 7.324219l54.277344 54.277344c2.992187 2.992187 5.667969 6.195312 8.042969 9.5625.050781.070312.09375.140624.144531.210937 15.117187 21.59375 17.539063 50.015625 5.441406 74.210937-2.886719 5.777344-1.757812 12.75 2.808594 17.316407zm-28.722656-156.015625-54.28125-54.28125c-4.261719-4.261719-9.105469-7.722656-14.34375-10.339844l14.769531-16.496094 68.84375 68.839844-14.394531 12.894531c-.199219-.207031-.394531-.417969-.59375-.617187zm42.671875-27.023438-81.78125-81.78125c1.160156-12.320312 5.296875-24.019531 12.0625-34.222656l103.941406 103.945312c-10.203125 6.761719-21.902344 10.898438-34.222656 12.058594zm0 0"/></svg>